<svg width="166" height="156" viewBox="0 0 166 156" fill="none" xmlns="http://www.w3.org/2000/svg">
<path d="M130.299 27.6822L150.909 9.70975" stroke="#409C36" stroke-width="3" stroke-linecap="round"/>
<path d="M69.9374 154.005L84.2273 140.677" stroke="#409C36" stroke-width="3" stroke-linecap="round"/>
<path d="M1.99983 59.5433L19.7295 43.0374" stroke="#409C36" stroke-width="3" stroke-linecap="round"/>
<path opacity="0.75" d="M165.5 79.2966C165.5 81.4997 163.715 83.2851 161.514 83.2851C159.314 83.2851 157.529 81.4997 157.529 79.2966C157.529 77.0935 159.314 75.3081 161.514 75.3081C163.715 75.3081 165.5 77.0935 165.5 79.2966Z" fill="white" stroke="#409C36"/>
<path opacity="0.3" d="M100.709 140.639C100.709 141.367 99.9263 142.134 98.7166 142.134C97.5069 142.134 96.7246 141.367 96.7246 140.639C96.7246 139.912 97.5069 139.145 98.7166 139.145C99.9263 139.145 100.709 139.912 100.709 140.639Z" fill="white" stroke="#409C36"/>
<path opacity="0.75" d="M19.9682 92.2634C19.9682 94.4665 18.1835 96.2519 15.9826 96.2519C13.7818 96.2519 11.9971 94.4665 11.9971 92.2634C11.9971 90.0603 13.7818 88.2749 15.9826 88.2749C18.1835 88.2749 19.9682 90.0603 19.9682 92.2634Z" fill="white" stroke="#409C36"/>
<path opacity="0.3" d="M135.596 116.701C135.596 117.527 134.927 118.196 134.102 118.196C133.278 118.196 132.609 117.527 132.609 116.701C132.609 115.875 133.278 115.206 134.102 115.206C134.927 115.206 135.596 115.875 135.596 116.701Z" fill="white" stroke="#409C36"/>
<path opacity="0.8" d="M35.9169 130.665C35.9169 131.491 35.2478 132.16 34.4233 132.16C33.5987 132.16 32.9297 131.491 32.9297 130.665C32.9297 129.839 33.5987 129.17 34.4233 129.17C35.2478 129.17 35.9169 129.839 35.9169 130.665Z" fill="white" stroke="#409C36"/>
<path opacity="0.3" d="M40.9009 6.98219C40.9009 7.70971 40.1187 8.47708 38.909 8.47708C37.6993 8.47708 36.917 7.70971 36.917 6.98219C36.917 6.25467 37.6993 5.4873 38.909 5.4873C40.1187 5.4873 40.9009 6.25467 40.9009 6.98219Z" fill="white" stroke="#409C36"/>
<path opacity="0.75" d="M89.7438 4.48849C89.7438 6.69158 87.9591 8.47698 85.7582 8.47698C83.5573 8.47698 81.7726 6.69158 81.7726 4.48849C81.7726 2.2854 83.5573 0.5 85.7582 0.5C87.9591 0.5 89.7438 2.2854 89.7438 4.48849Z" fill="white" stroke="#409C36"/>
<path fill-rule="evenodd" clip-rule="evenodd" d="M84 119.667C107.012 119.667 125.667 101.012 125.667 77.9999C125.667 54.9881 107.012 36.3333 84 36.3333C60.9881 36.3333 42.3333 54.9881 42.3333 77.9999C42.3333 101.012 60.9881 119.667 84 119.667ZM103.962 70.5806C105.124 69.4183 105.124 67.5339 103.962 66.3716C102.799 65.2094 100.915 65.2094 99.7526 66.3716L78.0476 88.0767L68.2473 78.2764C67.085 77.1141 65.2006 77.1141 64.0384 78.2764C62.8761 79.4387 62.8761 81.3231 64.0384 82.4854L75.9431 94.3901C77.1054 95.5524 78.9898 95.5524 80.1521 94.3901L103.962 70.5806Z" fill="#409C36"/>
</svg>
